Coordinates
version=1
nRows=13
nColumns=38
inDegrees=no

Units are S.I. units (second, meters, Newtons, ...)
If the header above contains a line with 'inDegrees', this indicates whether rotational values are in degrees (yes) or radians (no).

endheader
time	pelvis_tilt	pelvis_list	pelvis_rotation	pelvis_tx	pelvis_ty	pelvis_tz	hip_flexion_r	hip_adduction_r	hip_rotation_r	knee_angle_r	ankle_angle_r	subtalar_angle_r	mtp_angle_r	hip_flexion_l	hip_adduction_l	hip_rotation_l	knee_angle_l	ankle_angle_l	subtalar_angle_l	mtp_angle_l	lumbar_extension	lumbar_bending	lumbar_rotation	arm_flex_r	arm_add_r	arm_rot_r	elbow_flex_r	pro_sup_r	wrist_flex_r	wrist_dev_r	arm_flex_l	arm_add_l	arm_rot_l	elbow_flex_l	pro_sup_l	wrist_flex_l	wrist_dev_l
0	0.228907	1.46247	-1.70907	0.516341	1.03441	1.05858	-0.16518	-0.0988613	-0.16799	0.688282	-0.232123	0	0	0.1592	-0.084636	-0.0948237	0.0624884	-0.158348	0	0	-0.430849	-0.0344233	0.18266	-0.0684711	-0.67323	0.504662	1.12936	0.969792	0	0	0.0372035	-0.45323	0.472079	1.0307	1.03997	0	0
0.01	0.220057	1.46484	-1.70496	0.519682	1.02312	1.0568	-0.172683	-0.0988472	-0.155542	0.686878	-0.234834	0	0	0.153018	-0.0831489	-0.0850514	0.0550908	-0.171109	0	0	-0.425555	-0.0353289	0.185424	-0.070904	-0.671595	0.50193	1.12657	0.97159	0	0	0.0316855	-0.452897	0.468648	1.03395	1.04161	0	0
0.02	0.21325	1.4639	-1.70209	0.523285	1.01146	1.05529	-0.183718	-0.10181	-0.150611	0.687273	-0.239301	0	0	0.149204	-0.08173	-0.0829271	0.0697193	-0.178334	0	0	-0.422861	-0.0363504	0.187266	-0.0748418	-0.670454	0.498534	1.12569	0.974515	0	0	0.0258063	-0.453395	0.466108	1.03816	1.04319	0	0
0.03	0.206321	1.46117	-1.69928	0.52703	0.999622	1.054	-0.197081	-0.105213	-0.145249	0.686435	-0.247129	0	0	0.146536	-0.0807897	-0.08497	0.0988766	-0.176613	0	0	-0.422093	-0.0376829	0.189158	-0.0793386	-0.669478	0.494455	1.12534	0.980283	0	0	0.0195765	-0.453871	0.463223	1.04318	1.04437	0	0
0.04	0.201689	1.45734	-1.69889	0.53093	0.987587	1.05288	-0.21136	-0.109385	-0.139598	0.685905	-0.256027	0	0	0.142705	-0.0791122	-0.0875903	0.129799	-0.167675	0	0	-0.422162	-0.039305	0.191093	-0.0844774	-0.668536	0.489813	1.12536	0.985144	0	0	0.0132912	-0.454303	0.460818	1.04828	1.0447	0	0
0.05	0.199531	1.45236	-1.70106	0.53498	0.975411	1.052	-0.226457	-0.114509	-0.133818	0.685571	-0.266929	0	0	0.136577	-0.0758466	-0.0902116	0.153349	-0.161727	0	0	-0.423203	-0.0413452	0.19307	-0.0895793	-0.668063	0.48575	1.12537	0.990384	0	0	0.0071345	-0.454864	0.459029	1.0536	1.04427	0	0
0.06	0.202113	1.44737	-1.7075	0.539149	0.963149	1.05131	-0.240487	-0.120356	-0.128056	0.68649	-0.280079	0	0	0.130306	-0.071083	-0.0913113	0.168679	-0.166361	0	0	-0.423992	-0.0438057	0.194578	-0.0945842	-0.667189	0.481778	1.12457	0.99632	0	0	0.00105891	-0.45563	0.457558	1.05861	1.04338	0	0
0.07	0.209986	1.44363	-1.71841	0.543382	0.950835	1.05078	-0.251615	-0.126652	-0.122302	0.689392	-0.295805	0	0	0.12586	-0.0659033	-0.089138	0.180662	-0.179808	0	0	-0.423571	-0.0468657	0.19548	-0.0994755	-0.664864	0.477468	1.12237	1.00106	0	0	-0.00439892	-0.456851	0.457055	1.06303	1.0432	0	0
0.08	0.222918	1.44151	-1.73407	0.547643	0.938506	1.0504	-0.258914	-0.133278	-0.115507	0.694605	-0.314367	0	0	0.122518	-0.060883	-0.0844117	0.191775	-0.1957	0	0	-0.421635	-0.0507418	0.196433	-0.103062	-0.661848	0.474915	1.11798	1.00489	0	0	-0.00902745	-0.457945	0.457265	1.06656	1.043	0	0
0.09	0.239857	1.44098	-1.75324	0.55202	0.926157	1.05017	-0.262468	-0.140313	-0.108436	0.701997	-0.337887	0	0	0.119501	-0.0560544	-0.0794108	0.201955	-0.21138	0	0	-0.417864	-0.054788	0.196868	-0.10558	-0.657939	0.473565	1.11144	1.0096	0	0	-0.0131098	-0.458496	0.457871	1.06849	1.04303	0	0
0.1	0.25891	1.44242	-1.77374	0.556613	0.913807	1.05002	-0.261729	-0.14761	-0.101509	0.712364	-0.363923	0	0	0.118249	-0.0519085	-0.0763499	0.212496	-0.224941	0	0	-0.411617	-0.0580546	0.196861	-0.10746	-0.65387	0.473734	1.10324	1.01544	0	0	-0.0163711	-0.458213	0.459238	1.06794	1.04437	0	0
0.11	0.279683	1.44524	-1.79516	0.561421	0.901501	1.05	-0.257061	-0.155347	-0.0951105	0.72634	-0.392276	0	0	0.119222	-0.0487949	-0.0751395	0.225792	-0.236023	0	0	-0.403685	-0.0605349	0.196619	-0.108993	-0.64994	0.47467	1.09402	1.02033	0	0	-0.0185282	-0.457457	0.461751	1.06536	1.04776	0	0
0.12	0.301455	1.44893	-1.81679	0.566351	0.88925	1.05018	-0.248759	-0.162941	-0.0897008	0.743363	-0.425063	0	0	0.122145	-0.0468818	-0.0744066	0.243493	-0.243422	0	0	-0.394881	-0.0625057	0.19606	-0.110127	-0.645824	0.475879	1.08396	1.02471	0	0	-0.020267	-0.455605	0.46381	1.0616	1.04914	0	0
